PathFileType	4	(X/Y/Z)	TVC_9_BWA3_walk_RCNL2025.trc
DataRate	CameraRate	NumFrames	NumMarkers	Units	OrigDataRate	OrigDataStartFrame	OrigNumFrames
100	100	5	27	mm	100	55	438
Frame#	Time	R_Shoulder			L_Shoulder			C7			J_Notch			R_Elbow			L_Elbow			R_Wrist			L_Wrist			R_Asis			L_Asis			R_Psis			L_Psis			Sacral			Thoracic			Sternum			R_Thigh_Lateral			R_Knee_Lateral			R_Shank_Lateral			R_Ankle_Lateral			R_Heel			R_Toe			L_Thigh_Lateral			L_Knee_Lateral			L_Shank_Lateral			L_Ankle_Lateral			L_Heel			L_Toe		
		X1	Y1	Z1	X2	Y2	Z2	X3	Y3	Z3	X4	Y4	Z4	X5	Y5	Z5	X6	Y6	Z6	X7	Y7	Z7	X8	Y8	Z8	X9	Y9	Z9	X10	Y10	Z10	X11	Y11	Z11	X12	Y12	Z12	X13	Y13	Z13	X14	Y14	Z14	X15	Y15	Z15	X16	Y16	Z16	X17	Y17	Z17	X18	Y18	Z18	X19	Y19	Z19	X20	Y20	Z20	X21	Y21	Z21	X22	Y22	Z22	X23	Y23	Z23	X24	Y24	Z24	X25	Y25	Z25	X26	Y26	Z26	X27	Y27	Z27
55	0.54000000	-1268.635620	1367.563232	40.295158	-1304.825073	1368.072266	-348.811096	-1338.644775	1434.595947	-157.572418	-1187.568237	1329.636108	-151.030624	-1183.280762	1074.459351	175.184875	-1417.580688	1055.123413	-424.125519	-966.951721	950.524628	135.658344	-1413.798889	809.472290	-395.170944	-1253.357910	925.504517	9.111167	-1262.052734	922.865295	-297.210693	-1449.860596	951.608215	-86.219795	-1451.210693	942.707092	-183.624100	-1450.535645	947.157654	-134.921947	-1441.494507	1159.264404	-142.405746	-1138.342407	1137.165649	-149.637604	-1337.644531	526.837036	51.328880	-1359.987305	449.335632	-25.299889	-1384.309814	288.146790	9.633312	-1441.932495	73.479729	-82.390244	-1495.319824	65.361305	-145.436691	-1312.709106	49.075130	-118.629066	-1145.245972	583.258301	-339.176117	-1115.409180	470.170044	-278.360168	-1081.877319	331.990662	-329.038513	-1048.163330	104.831337	-256.147797	-1089.378662	63.862312	-197.637283	-903.557922	113.351753	-236.609436
56	0.55000000	-1261.036865	1366.109497	40.259018	-1297.029663	1366.780640	-348.953186	-1330.889404	1433.153809	-157.670670	-1179.725098	1328.335083	-151.156876	-1173.030640	1074.655518	175.965927	-1411.723877	1054.098877	-422.716858	-954.951630	953.921143	136.174759	-1410.035828	808.365875	-393.596634	-1245.419067	924.578186	9.277767	-1253.689087	921.260559	-297.287811	-1441.722168	949.944458	-86.708069	-1442.823120	940.662231	-183.888992	-1442.272644	945.303345	-135.298531	-1433.443726	1157.737915	-142.847427	-1130.485474	1135.764893	-149.716766	-1333.060669	526.234192	51.315105	-1356.029907	448.927734	-25.188856	-1382.174561	288.078613	9.830097	-1441.696655	73.884621	-82.431549	-1495.110107	66.166367	-145.464050	-1312.671265	49.048283	-118.573425	-1139.202637	579.686646	-338.840240	-1106.765137	468.599243	-277.147888	-1069.975952	330.757538	-327.539154	-1030.148560	104.497780	-254.131378	-1069.978394	63.081997	-195.337372	-885.322510	116.296547	-235.634933
57	0.56000000	-1253.385620	1364.603271	40.186729	-1289.219971	1365.494751	-349.128693	-1323.093750	1431.701172	-157.802185	-1171.822998	1327.038574	-151.329910	-1163.001221	1074.670166	176.612808	-1405.628662	1053.044922	-421.484680	-943.427277	956.744080	136.621670	-1405.724976	807.265900	-392.170563	-1237.412842	923.650146	9.432618	-1245.205444	919.702148	-297.378967	-1433.482056	948.252930	-87.255394	-1434.333740	938.603760	-184.232101	-1433.907898	943.428345	-135.743748	-1425.303345	1156.193481	-143.323364	-1122.572632	1134.378784	-149.876816	-1328.352173	525.643311	51.359268	-1351.845703	448.500763	-25.053438	-1379.853027	288.021210	10.029921	-1441.415039	74.375267	-82.435547	-1494.859863	67.107368	-145.457275	-1312.622925	49.019207	-118.505280	-1132.950928	576.350830	-338.363098	-1098.023315	467.025848	-275.970856	-1058.854126	329.420166	-326.027954	-1014.140503	104.058678	-252.018539	-1052.704956	62.460159	-192.872635	-869.096069	118.421165	-234.684326
58	0.57000000	-1245.675659	1363.069946	40.071262	-1281.387939	1364.224121	-349.343781	-1315.249146	1430.253418	-157.976135	-1163.853394	1325.763062	-151.553528	-1153.201172	1074.510620	177.123001	-1399.286865	1051.967163	-420.434265	-932.374634	958.977570	137.003521	-1400.861023	806.173615	-390.899887	-1229.333008	922.728088	9.583144	-1236.584717	918.205505	-297.472534	-1425.131836	946.555847	-87.856529	-1425.730957	936.565613	-184.652588	-1425.431396	941.560730	-136.254559	-1417.065552	1154.646118	-143.831589	-1114.585938	1133.029541	-150.109451	-1323.505371	525.063782	51.472851	-1347.423706	448.058167	-24.889711	-1377.318726	287.973419	10.231112	-1441.080566	74.960304	-82.395805	-1494.563232	68.194794	-145.409378	-1312.560425	48.984898	-118.423759	-1126.383789	573.329895	-337.773407	-1089.186157	465.448212	-274.844238	-1048.490601	327.942780	-324.510101	-1000.173828	103.418076	-249.814438	-1037.618286	61.853634	-190.246826	-854.903687	119.626709	-233.708145
59	0.58000000	-1237.900269	1361.535889	39.905655	-1273.523193	1362.978149	-349.604828	-1307.346436	1428.825928	-158.202072	-1155.807251	1324.525024	-151.831573	-1143.638916	1074.185669	177.495178	-1392.689575	1050.870850	-419.568420	-921.791748	960.610138	137.325287	-1395.440857	805.090271	-389.791122	-1221.171387	921.819580	9.735218	-1227.811279	916.784607	-297.558563	-1416.663086	944.875732	-88.504723	-1417.003784	934.580505	-185.147812	-1416.833435	939.728119	-136.826267	-1408.722778	1153.111694	-144.370026	-1106.507324	1131.739014	-150.405457	-1318.502441	524.494019	51.661297	-1342.757812	447.605225	-24.695780	-1374.549805	287.937317	10.431987	-1440.686279	75.647400	-82.306549	-1494.215088	69.437233	-145.312653	-1312.480469	48.943039	-118.329407	-1119.422485	570.671265	-337.118591	-1080.275024	463.860168	-273.783112	-1038.857300	326.298828	-322.994049	-988.235718	102.506485	-247.537704	-1024.728882	61.139275	-187.484436	-842.737305	119.860901	-232.662018
